<svg xmlns="http://www.w3.org/2000/svg" xmlns:xlink="http://www.w3.org/1999/xlink" xmlns:s="https://github.com/nturley/netlistsvg" width="753" height="426.5">
  <rect width="100%" height="100%" fill="white"/><style>svg {
  stroke:#000;
  fill:none;
}
text {
  fill:#000;
  stroke:none;
  font-size:10px;
  font-weight: bold;
  font-family: "Courier New", monospace;
}
line {
    stroke-linecap: round;
}
.nodelabel {
  text-anchor: middle;
}
.inputPortLabel {
  text-anchor: end;
}
.splitjoinBody {
  fill:#000;
}</style><g s:type="eq" transform="translate(380,263.5)" s:width="25" s:height="25" id="cell_$eq$cores/laser/perip_laser.v:19$3"><s:alias val="$eq"/><s:alias val="$eqx"/><circle r="12.5" cx="12.5" cy="12.5" class="cell_$eq$cores/laser/perip_laser.v:19$3"/><line x1="7.5" x2="17.5" y1="10" y2="10" class="cell_$eq$cores/laser/perip_laser.v:19$3"/><line x1="7.5" x2="17.5" y1="15" y2="15" class="cell_$eq$cores/laser/perip_laser.v:19$3"/><g s:x="2" s:y="5" s:pid="A"/><g s:x="2" s:y="20" s:pid="B"/><g s:x="25" s:y="12.5" s:pid="Y"/></g><g s:type="and" transform="translate(505,301)" s:width="30" s:height="25" id="cell_$logic_and$cores/laser/perip_laser.v:18$2"><s:alias val="$and"/><s:alias val="$logic_and"/><s:alias val="$_AND_"/><s:alias val="$reduce_and"/><path d="M0,0 L0,25 L15,25 A15 12.5 0 0 0 15,0 Z" class="cell_$logic_and$cores/laser/perip_laser.v:18$2"/><g s:x="0" s:y="5" s:pid="A"/><g s:x="0" s:y="20" s:pid="B"/><g s:x="30" s:y="12.5" s:pid="Y"/></g><g s:type="dff-bus" transform="translate(310,36)" s:width="34" s:height="44" id="cell_$procdff$11"><s:alias val="$dff-bus"/><s:alias val="$_DFF_-bus"/><s:alias val="$_DFF_P_-bus"/><s:alias val="adff-bus"/><s:alias val="$adff-bus"/><s:alias val="$_DFF_-bus"/><s:alias val="$_DFF_P_-bus"/><s:alias val="sdff-bus"/><s:alias val="$sdff-bus"/><s:alias val="$_DFF_-bus"/><s:alias val="$_DFF_P_-bus"/><rect width="30" height="40" x="0" y="0" class="cell_$procdff$11"/><path d="M0,35 L5,30 L0,25" class="cell_$procdff$11"/><path d="M30,2 L32,2 L32,42 L2,42 L2,40" class="cell_$procdff$11"/><path d="M32,4 L34,4 L34,44 L4,44 L4,42" class="cell_$procdff$11"/><g s:x="35" s:y="10" s:pid="Q"/><g s:x="-1" s:y="30" s:pid="CLK"/><g s:x="-1" s:y="30" s:pid="C"/><g s:x="-1" s:y="10" s:pid="D"/><g s:x="17" s:y="44" s:pid="ARST"/><g s:x="17" s:y="44" s:pid="SRST"/></g><g s:type="mux-bus" transform="translate(442.3333333333333,132)" s:width="24" s:height="40" id="cell_$procmux$4"><s:alias val="$pmux-bus"/><s:alias val="$mux-bus"/><s:alias val="$_MUX_-bus"/><path d="M0,0 L20,10 L20,30 L0,40 Z" class="cell_$procmux$4"/><path d="M4,2 L4,0 L22,9 L22,31 L4,40 L4,38" class="cell_$procmux$4"/><path d="M8,2 L8,0 L24,8 L24,32 L8,40 L8,38" class="cell_$procmux$4"/><text x="5" y="32" class="nodelabel cell_$procmux$4" s:attribute="">1</text><text x="5" y="13" class="nodelabel cell_$procmux$4" s:attribute="">0</text><g s:x="-1" s:y="10" s:pid="A"/><g s:x="-1" s:y="30" s:pid="B"/><g s:x="12" s:y="38" s:pid="S"/><g s:x="24.5" s:y="20" s:pid="Y"/></g><g s:type="mux-bus" transform="translate(572.6666666666667,81)" s:width="24" s:height="40" id="cell_$procmux$6"><s:alias val="$pmux-bus"/><s:alias val="$mux-bus"/><s:alias val="$_MUX_-bus"/><path d="M0,0 L20,10 L20,30 L0,40 Z" class="cell_$procmux$6"/><path d="M4,2 L4,0 L22,9 L22,31 L4,40 L4,38" class="cell_$procmux$6"/><path d="M8,2 L8,0 L24,8 L24,32 L8,40 L8,38" class="cell_$procmux$6"/><text x="5" y="32" class="nodelabel cell_$procmux$6" s:attribute="">1</text><text x="5" y="13" class="nodelabel cell_$procmux$6" s:attribute="">0</text><g s:x="-1" s:y="10" s:pid="A"/><g s:x="-1" s:y="30" s:pid="B"/><g s:x="12" s:y="38" s:pid="S"/><g s:x="24.5" s:y="20" s:pid="Y"/></g><g s:type="mux-bus" transform="translate(702,91)" s:width="24" s:height="40" id="cell_$procmux$9"><s:alias val="$pmux-bus"/><s:alias val="$mux-bus"/><s:alias val="$_MUX_-bus"/><path d="M0,0 L20,10 L20,30 L0,40 Z" class="cell_$procmux$9"/><path d="M4,2 L4,0 L22,9 L22,31 L4,40 L4,38" class="cell_$procmux$9"/><path d="M8,2 L8,0 L24,8 L24,32 L8,40 L8,38" class="cell_$procmux$9"/><text x="5" y="32" class="nodelabel cell_$procmux$9" s:attribute="">1</text><text x="5" y="13" class="nodelabel cell_$procmux$9" s:attribute="">0</text><g s:x="-1" s:y="10" s:pid="A"/><g s:x="-1" s:y="30" s:pid="B"/><g s:x="12" s:y="38" s:pid="S"/><g s:x="24.5" s:y="20" s:pid="Y"/></g><g s:type="inputExt" transform="translate(243,56)" s:width="30" s:height="20" id="cell_clk"><text x="15" y="-4" class="nodelabel cell_clk" s:attribute="ref">clk</text><s:alias val="$_inputExt_"/><path d="M0,0 L0,20 L15,20 L30,10 L15,0 Z" class="cell_clk"/><g s:x="30" s:y="10" s:pid="Y"/></g><g s:type="inputExt" transform="translate(636,394.5)" s:width="30" s:height="20" id="cell_rst"><text x="15" y="-4" class="nodelabel cell_rst" s:attribute="ref">rst</text><s:alias val="$_inputExt_"/><path d="M0,0 L0,20 L15,20 L30,10 L15,0 Z" class="cell_rst"/><g s:x="30" s:y="10" s:pid="Y"/></g><g s:type="inputExt" transform="translate(12,22)" s:width="30" s:height="20" id="cell_d_in"><text x="15" y="-4" class="nodelabel cell_d_in" s:attribute="ref">d_in</text><s:alias val="$_inputExt_"/><path d="M0,0 L0,20 L15,20 L30,10 L15,0 Z" class="cell_d_in"/><g s:x="30" s:y="10" s:pid="Y"/></g><g s:type="inputExt" transform="translate(440,296)" s:width="30" s:height="20" id="cell_cs"><text x="15" y="-4" class="nodelabel cell_cs" s:attribute="ref">cs</text><s:alias val="$_inputExt_"/><path d="M0,0 L0,20 L15,20 L30,10 L15,0 Z" class="cell_cs"/><g s:x="30" s:y="10" s:pid="Y"/></g><g s:type="inputExt" transform="translate(112,281)" s:width="30" s:height="20" id="cell_addr"><text x="15" y="-4" class="nodelabel cell_addr" s:attribute="ref">addr</text><s:alias val="$_inputExt_"/><path d="M0,0 L0,20 L15,20 L30,10 L15,0 Z" class="cell_addr"/><g s:x="30" s:y="10" s:pid="Y"/></g><g s:type="inputExt" transform="translate(440,361)" s:width="30" s:height="20" id="cell_rd"><text x="15" y="-4" class="nodelabel cell_rd" s:attribute="ref">rd</text><s:alias val="$_inputExt_"/><path d="M0,0 L0,20 L15,20 L30,10 L15,0 Z" class="cell_rd"/><g s:x="30" s:y="10" s:pid="Y"/></g><g s:type="inputExt" transform="translate(62,22)" s:width="30" s:height="20" id="cell_wr"><text x="15" y="-4" class="nodelabel cell_wr" s:attribute="ref">wr</text><s:alias val="$_inputExt_"/><path d="M0,0 L0,20 L15,20 L30,10 L15,0 Z" class="cell_wr"/><g s:x="30" s:y="10" s:pid="Y"/></g><g s:type="outputExt" transform="translate(701,36)" s:width="30" s:height="20" id="cell_d_out"><text x="15" y="-4" class="nodelabel cell_d_out" s:attribute="ref">d_out</text><s:alias val="$_outputExt_"/><path d="M30,0 L30,20 L15,20 L0,10 L15,0 Z" class="cell_d_out"/><g s:x="0" s:y="10" s:pid="A"/></g><g s:type="inputExt" transform="translate(177,142)" s:width="30" s:height="20" id="cell_laser"><text x="15" y="-4" class="nodelabel cell_laser" s:attribute="ref">laser</text><s:alias val="$_inputExt_"/><path d="M0,0 L0,20 L15,20 L30,10 L15,0 Z" class="cell_laser"/><g s:x="30" s:y="10" s:pid="Y"/></g><g s:type="constant" transform="translate(243,311)" s:width="30" s:height="20" id="cell_10"><text x="15" y="-4" class="nodelabel cell_10" s:attribute="ref">10</text><s:alias val="$_constant_"/><rect width="30" height="20" class="cell_10"/><g s:x="31" s:y="10" s:pid="Y"/></g><g s:type="constant" transform="translate(177,207)" s:width="30" s:height="20" id="cell_0000000000000000000000000000"><text x="15" y="-4" class="nodelabel cell_0000000000000000000000000000" s:attribute="ref">0x0</text><s:alias val="$_constant_"/><rect width="30" height="20" class="cell_0000000000000000000000000000"/><g s:x="31" s:y="10" s:pid="Y"/></g><g s:type="constant" transform="translate(570,333.5)" s:width="30" s:height="20" id="cell_00000000000000000000000000000000"><text x="15" y="-4" class="nodelabel cell_00000000000000000000000000000000" s:attribute="ref">0x0</text><s:alias val="$_constant_"/><rect width="30" height="20" class="cell_00000000000000000000000000000000"/><g s:x="31" s:y="10" s:pid="Y"/></g><g s:type="join" transform="translate(328,141.5)" s:width="4" s:height="40" id="cell_$join$,103,104,105,106,207,208,209,210,211,212,213,214,215,216,217,218,219,220,221,222,223,224,225,226,227,228,229,230,231,232,233,234,"><rect width="5" height="40" class="splitjoinBody" s:generic="body"/><s:alias val="$_join_"/><g s:x="5" s:y="20" s:pid="out"/><g transform="translate(0,10)" s:x="0" s:y="10" s:pid="in0"><text x="-3" y="-4" class="inputPortLabel">0:3</text></g><g transform="translate(0,30)" s:x="0" s:y="10" s:pid="in0"><text x="-3" y="-4" class="inputPortLabel">4:31</text></g></g><g s:type="split" transform="translate(250,258)" s:width="5" s:height="40" id="cell_$split$,37,38,39,40,41,42,43,44,45,46,47,48,49,50,51,52,53,54,55,56,57,58,59,60,61,62,63,64,65,66,67,68,"><rect width="5" height="20" class="splitjoinBody" s:generic="body"/><s:alias val="$_split_"/><g s:x="0" s:y="20" s:pid="in"/><g transform="translate(4,10)" s:x="4" s:y="10" s:pid="out0"><text x="5" y="-4">0:4</text></g></g><line x1="255" x2="382" y1="268.5" y2="268.5" class="net_37,38,39,40,41 width_5" style="stroke-width: 2"/><line x1="274" x2="355" y1="321" y2="321" class="net_205,206 width_2" style="stroke-width: 2"/><line x1="355" x2="355" y1="321" y2="283.5" class="net_205,206 width_2" style="stroke-width: 2"/><line x1="355" x2="382" y1="283.5" y2="283.5" class="net_205,206 width_2" style="stroke-width: 2"/><line x1="470" x2="505" y1="306" y2="306" class="net_36 width_1" style="stroke-width: 1"/><line x1="470" x2="480" y1="371" y2="371" class="net_69 width_1" style="stroke-width: 1"/><line x1="480" x2="480" y1="371" y2="321" class="net_69 width_1" style="stroke-width: 1"/><line x1="480" x2="505" y1="321" y2="321" class="net_69 width_1" style="stroke-width: 1"/><line x1="273" x2="309" y1="66" y2="66" class="net_2 width_1" style="stroke-width: 1"/><line x1="726.5" x2="741" y1="111" y2="111" class="net_109,110,111,112,113,114,115,116,117,118,119,120,121,122,123,124,125,126,127,128,129,130,131,132,133,134,135,136,137,138,139,140 width_32" style="stroke-width: 2"/><line x1="741" x2="741" y1="111" y2="16" class="net_109,110,111,112,113,114,115,116,117,118,119,120,121,122,123,124,125,126,127,128,129,130,131,132,133,134,135,136,137,138,139,140 width_32" style="stroke-width: 2"/><line x1="741" x2="284" y1="16" y2="16" class="net_109,110,111,112,113,114,115,116,117,118,119,120,121,122,123,124,125,126,127,128,129,130,131,132,133,134,135,136,137,138,139,140 width_32" style="stroke-width: 2"/><line x1="284" x2="284" y1="16" y2="46" class="net_109,110,111,112,113,114,115,116,117,118,119,120,121,122,123,124,125,126,127,128,129,130,131,132,133,134,135,136,137,138,139,140 width_32" style="stroke-width: 2"/><line x1="284" x2="309" y1="46" y2="46" class="net_109,110,111,112,113,114,115,116,117,118,119,120,121,122,123,124,125,126,127,128,129,130,131,132,133,134,135,136,137,138,139,140 width_32" style="stroke-width: 2"/><line x1="345" x2="355" y1="46" y2="46" class="net_71,72,73,74,75,76,77,78,79,80,81,82,83,84,85,86,87,88,89,90,91,92,93,94,95,96,97,98,99,100,101,102 width_32" style="stroke-width: 2"/><line x1="355" x2="355" y1="46" y2="142" class="net_71,72,73,74,75,76,77,78,79,80,81,82,83,84,85,86,87,88,89,90,91,92,93,94,95,96,97,98,99,100,101,102 width_32" style="stroke-width: 2"/><circle cx="355" cy="46" r="3" style="fill:#000" class="net_71,72,73,74,75,76,77,78,79,80,81,82,83,84,85,86,87,88,89,90,91,92,93,94,95,96,97,98,99,100,101,102 width_32"/><line x1="355" x2="441.3333333333333" y1="142" y2="142" class="net_71,72,73,74,75,76,77,78,79,80,81,82,83,84,85,86,87,88,89,90,91,92,93,94,95,96,97,98,99,100,101,102 width_32" style="stroke-width: 2"/><line x1="345" x2="415" y1="46" y2="46" class="net_71,72,73,74,75,76,77,78,79,80,81,82,83,84,85,86,87,88,89,90,91,92,93,94,95,96,97,98,99,100,101,102 width_32" style="stroke-width: 2"/><line x1="415" x2="415" y1="46" y2="91" class="net_71,72,73,74,75,76,77,78,79,80,81,82,83,84,85,86,87,88,89,90,91,92,93,94,95,96,97,98,99,100,101,102 width_32" style="stroke-width: 2"/><circle cx="415" cy="46" r="3" style="fill:#000" class="net_71,72,73,74,75,76,77,78,79,80,81,82,83,84,85,86,87,88,89,90,91,92,93,94,95,96,97,98,99,100,101,102 width_32"/><line x1="415" x2="571.6666666666667" y1="91" y2="91" class="net_71,72,73,74,75,76,77,78,79,80,81,82,83,84,85,86,87,88,89,90,91,92,93,94,95,96,97,98,99,100,101,102 width_32" style="stroke-width: 2"/><line x1="345" x2="701" y1="46" y2="46" class="net_71,72,73,74,75,76,77,78,79,80,81,82,83,84,85,86,87,88,89,90,91,92,93,94,95,96,97,98,99,100,101,102 width_32" style="stroke-width: 2"/><line x1="334" x2="441.3333333333333" y1="162" y2="162" class="net_103,104,105,106,207,208,209,210,211,212,213,214,215,216,217,218,219,220,221,222,223,224,225,226,227,228,229,230,231,232,233,234 width_32" style="stroke-width: 2"/><line x1="405" x2="454.3333333333333" y1="276" y2="276" class="net_107 width_1" style="stroke-width: 1"/><line x1="454.3333333333333" x2="454.3333333333333" y1="276" y2="170" class="net_107 width_1" style="stroke-width: 1"/><line x1="466.8333333333333" x2="545" y1="152" y2="152" class="net_141,142,143,144,145,146,147,148,149,150,151,152,153,154,155,156,157,158,159,160,161,162,163,164,165,166,167,168,169,170,171,172 width_32" style="stroke-width: 2"/><line x1="545" x2="545" y1="152" y2="111" class="net_141,142,143,144,145,146,147,148,149,150,151,152,153,154,155,156,157,158,159,160,161,162,163,164,165,166,167,168,169,170,171,172 width_32" style="stroke-width: 2"/><line x1="545" x2="571.6666666666667" y1="111" y2="111" class="net_141,142,143,144,145,146,147,148,149,150,151,152,153,154,155,156,157,158,159,160,161,162,163,164,165,166,167,168,169,170,171,172 width_32" style="stroke-width: 2"/><line x1="535" x2="584.6666666666667" y1="313.5" y2="313.5" class="net_108 width_1" style="stroke-width: 1"/><line x1="584.6666666666667" x2="584.6666666666667" y1="313.5" y2="119" class="net_108 width_1" style="stroke-width: 1"/><line x1="597.1666666666667" x2="701" y1="101" y2="101" class="net_173,174,175,176,177,178,179,180,181,182,183,184,185,186,187,188,189,190,191,192,193,194,195,196,197,198,199,200,201,202,203,204 width_32" style="stroke-width: 2"/><line x1="601" x2="676" y1="343.5" y2="343.5" class="net_235,236,237,238,239,240,241,242,243,244,245,246,247,248,249,250,251,252,253,254,255,256,257,258,259,260,261,262,263,264,265,266 width_32" style="stroke-width: 2"/><line x1="676" x2="676" y1="343.5" y2="121" class="net_235,236,237,238,239,240,241,242,243,244,245,246,247,248,249,250,251,252,253,254,255,256,257,258,259,260,261,262,263,264,265,266 width_32" style="stroke-width: 2"/><line x1="676" x2="701" y1="121" y2="121" class="net_235,236,237,238,239,240,241,242,243,244,245,246,247,248,249,250,251,252,253,254,255,256,257,258,259,260,261,262,263,264,265,266 width_32" style="stroke-width: 2"/><line x1="666" x2="714" y1="404.5" y2="404.5" class="net_3 width_1" style="stroke-width: 1"/><line x1="714" x2="714" y1="404.5" y2="129" class="net_3 width_1" style="stroke-width: 1"/><line x1="207" x2="328" y1="152" y2="152" class="net_103,104,105,106 width_4" style="stroke-width: 2"/><line x1="208" x2="284" y1="217" y2="217" class="net_207,208,209,210,211,212,213,214,215,216,217,218,219,220,221,222,223,224,225,226,227,228,229,230,231,232,233,234 width_28" style="stroke-width: 2"/><line x1="284" x2="284" y1="217" y2="172" class="net_207,208,209,210,211,212,213,214,215,216,217,218,219,220,221,222,223,224,225,226,227,228,229,230,231,232,233,234 width_28" style="stroke-width: 2"/><line x1="284" x2="328" y1="172" y2="172" class="net_207,208,209,210,211,212,213,214,215,216,217,218,219,220,221,222,223,224,225,226,227,228,229,230,231,232,233,234 width_28" style="stroke-width: 2"/><line x1="142" x2="250.5" y1="291" y2="291" class="net_37,38,39,40,41,42,43,44,45,46,47,48,49,50,51,52,53,54,55,56,57,58,59,60,61,62,63,64,65,66,67,68 width_32" style="stroke-width: 2"/><line x1="250.5" x2="250.5" y1="291" y2="279" class="net_37,38,39,40,41,42,43,44,45,46,47,48,49,50,51,52,53,54,55,56,57,58,59,60,61,62,63,64,65,66,67,68 width_32" style="stroke-width: 2"/><rect x="326" y="263.5" width="16" height="9" class="net_37,38,39,40,41 width_5 busLabel_5" style="fill: white; stroke: none"/><text x="325" y="271.5" class="net_37,38,39,40,41 width_5 busLabel_5">/5/</text><rect x="326" y="316" width="16" height="9" class="net_205,206 width_2 busLabel_2" style="fill: white; stroke: none"/><text x="325" y="324" class="net_205,206 width_2 busLabel_2">/2/</text><rect x="519" y="11" width="22" height="9" class="net_109,110,111,112,113,114,115,116,117,118,119,120,121,122,123,124,125,126,127,128,129,130,131,132,133,134,135,136,137,138,139,140 width_32 busLabel_32" style="fill: white; stroke: none"/><text x="518" y="19" class="net_109,110,111,112,113,114,115,116,117,118,119,120,121,122,123,124,125,126,127,128,129,130,131,132,133,134,135,136,137,138,139,140 width_32 busLabel_32">/32/</text><rect x="519" y="41" width="22" height="9" class="net_71,72,73,74,75,76,77,78,79,80,81,82,83,84,85,86,87,88,89,90,91,92,93,94,95,96,97,98,99,100,101,102 width_32 busLabel_32" style="fill: white; stroke: none"/><text x="518" y="49" class="net_71,72,73,74,75,76,77,78,79,80,81,82,83,84,85,86,87,88,89,90,91,92,93,94,95,96,97,98,99,100,101,102 width_32 busLabel_32">/32/</text><rect x="519" y="41" width="22" height="9" class="net_71,72,73,74,75,76,77,78,79,80,81,82,83,84,85,86,87,88,89,90,91,92,93,94,95,96,97,98,99,100,101,102 width_32 busLabel_32" style="fill: white; stroke: none"/><text x="518" y="49" class="net_71,72,73,74,75,76,77,78,79,80,81,82,83,84,85,86,87,88,89,90,91,92,93,94,95,96,97,98,99,100,101,102 width_32 busLabel_32">/32/</text><rect x="519" y="41" width="22" height="9" class="net_71,72,73,74,75,76,77,78,79,80,81,82,83,84,85,86,87,88,89,90,91,92,93,94,95,96,97,98,99,100,101,102 width_32 busLabel_32" style="fill: white; stroke: none"/><text x="518" y="49" class="net_71,72,73,74,75,76,77,78,79,80,81,82,83,84,85,86,87,88,89,90,91,92,93,94,95,96,97,98,99,100,101,102 width_32 busLabel_32">/32/</text><rect x="391.5" y="157" width="22" height="9" class="net_103,104,105,106,207,208,209,210,211,212,213,214,215,216,217,218,219,220,221,222,223,224,225,226,227,228,229,230,231,232,233,234 width_32 busLabel_32" style="fill: white; stroke: none"/><text x="390.5" y="165" class="net_103,104,105,106,207,208,209,210,211,212,213,214,215,216,217,218,219,220,221,222,223,224,225,226,227,228,229,230,231,232,233,234 width_32 busLabel_32">/32/</text><rect x="519" y="147" width="22" height="9" class="net_141,142,143,144,145,146,147,148,149,150,151,152,153,154,155,156,157,158,159,160,161,162,163,164,165,166,167,168,169,170,171,172 width_32 busLabel_32" style="fill: white; stroke: none"/><text x="518" y="155" class="net_141,142,143,144,145,146,147,148,149,150,151,152,153,154,155,156,157,158,159,160,161,162,163,164,165,166,167,168,169,170,171,172 width_32 busLabel_32">/32/</text><rect x="650" y="96" width="22" height="9" class="net_173,174,175,176,177,178,179,180,181,182,183,184,185,186,187,188,189,190,191,192,193,194,195,196,197,198,199,200,201,202,203,204 width_32 busLabel_32" style="fill: white; stroke: none"/><text x="649" y="104" class="net_173,174,175,176,177,178,179,180,181,182,183,184,185,186,187,188,189,190,191,192,193,194,195,196,197,198,199,200,201,202,203,204 width_32 busLabel_32">/32/</text><rect x="650" y="338.5" width="22" height="9" class="net_235,236,237,238,239,240,241,242,243,244,245,246,247,248,249,250,251,252,253,254,255,256,257,258,259,260,261,262,263,264,265,266 width_32 busLabel_32" style="fill: white; stroke: none"/><text x="649" y="346.5" class="net_235,236,237,238,239,240,241,242,243,244,245,246,247,248,249,250,251,252,253,254,255,256,257,258,259,260,261,262,263,264,265,266 width_32 busLabel_32">/32/</text><rect x="257.5" y="147" width="16" height="9" class="net_103,104,105,106 width_4 busLabel_4" style="fill: white; stroke: none"/><text x="256.5" y="155" class="net_103,104,105,106 width_4 busLabel_4">/4/</text><rect x="257.5" y="212" width="22" height="9" class="net_207,208,209,210,211,212,213,214,215,216,217,218,219,220,221,222,223,224,225,226,227,228,229,230,231,232,233,234 width_28 busLabel_28" style="fill: white; stroke: none"/><text x="256.5" y="220" class="net_207,208,209,210,211,212,213,214,215,216,217,218,219,220,221,222,223,224,225,226,227,228,229,230,231,232,233,234 width_28 busLabel_28">/28/</text><rect x="191.5" y="286" width="22" height="9" class="net_37,38,39,40,41,42,43,44,45,46,47,48,49,50,51,52,53,54,55,56,57,58,59,60,61,62,63,64,65,66,67,68 width_32 busLabel_32" style="fill: white; stroke: none"/><text x="190.5" y="294" class="net_37,38,39,40,41,42,43,44,45,46,47,48,49,50,51,52,53,54,55,56,57,58,59,60,61,62,63,64,65,66,67,68 width_32 busLabel_32">/32/</text></svg>