<svg xmlns="http://www.w3.org/2000/svg" xmlns:xlink="http://www.w3.org/1999/xlink" xmlns:s="https://github.com/nturley/netlistsvg" width="983" height="888.5">
  <rect width="100%" height="100%" fill="white"/><style>svg {
  stroke:#000;
  fill:none;
}
text {
  fill:#000;
  stroke:none;
  font-size:10px;
  font-weight: bold;
  font-family: "Courier New", monospace;
}
line {
    stroke-linecap: round;
}
.nodelabel {
  text-anchor: middle;
}
.inputPortLabel {
  text-anchor: end;
}
.splitjoinBody {
  fill:#000;
}</style><g s:type="and" transform="translate(443.6666666666667,710)" s:width="30" s:height="25" id="cell_$and$SOC.v:64$2"><s:alias val="$and"/><s:alias val="$logic_and"/><s:alias val="$_AND_"/><s:alias val="$reduce_and"/><path d="M0,0 L0,25 L15,25 A15 12.5 0 0 0 15,0 Z" class="cell_$and$SOC.v:64$2"/><g s:x="0" s:y="5" s:pid="A"/><g s:x="0" s:y="20" s:pid="B"/><g s:x="30" s:y="12.5" s:pid="Y"/></g><g s:type="and" transform="translate(378,794)" s:width="30" s:height="25" id="cell_$and$SOC.v:66$3"><s:alias val="$and"/><s:alias val="$logic_and"/><s:alias val="$_AND_"/><s:alias val="$reduce_and"/><path d="M0,0 L0,25 L15,25 A15 12.5 0 0 0 15,0 Z" class="cell_$and$SOC.v:66$3"/><g s:x="0" s:y="5" s:pid="A"/><g s:x="0" s:y="20" s:pid="B"/><g s:x="30" s:y="12.5" s:pid="Y"/></g><g s:type="not" transform="translate(444,337.5)" s:width="30" s:height="20" id="cell_$logic_not$SOC.v:112$6"><s:alias val="$_NOT_"/><s:alias val="$not"/><s:alias val="$logic_not"/><path d="M0,0 L0,20 L20,10 Z" class="cell_$logic_not$SOC.v:112$6"/><circle cx="24" cy="10" r="3" class="cell_$logic_not$SOC.v:112$6"/><g s:x="-1" s:y="10" s:pid="A"/><g s:x="27" s:y="10" s:pid="Y"/></g><g s:type="or" transform="translate(443.5,392.5)" s:width="30" s:height="25" id="cell_$reduce_or$SOC.v:58$1"><s:alias val="$or"/><s:alias val="$logic_or"/><s:alias val="$_OR_"/><s:alias val="$reduce_or"/><s:alias val="$reduce_bool"/><path d="M0,0 A30 25 0 0 1 0,25 A30 25 0 0 0 30,12.5 A30 25 0 0 0 0,0" class="cell_$reduce_or$SOC.v:58$1"/><g s:x="2" s:y="5" s:pid="A"/><g s:x="2" s:y="20" s:pid="B"/><g s:x="30" s:y="12.5" s:pid="Y"/></g><g s:type="generic" transform="translate(203,465.5)" s:width="30" s:height="40" id="cell_CPU"><text x="15" y="-4" class="nodelabel cell_CPU" s:attribute="ref">FemtoRV32</text><rect width="30" height="100" s:generic="body" class="cell_CPU"/><g transform="translate(0,10)" s:x="0" s:y="10" s:pid="in0" id="port_CPU~clk"><text x="-3" y="-4" class="inputPortLabel cell_CPU">clk</text></g><g transform="translate(0,30)" s:x="0" s:y="10" s:pid="in0" id="port_CPU~mem_rbusy"><text x="-3" y="-4" class="inputPortLabel cell_CPU">mem_rbusy</text></g><g transform="translate(0,50)" s:x="0" s:y="10" s:pid="in0" id="port_CPU~mem_rdata"><text x="-3" y="-4" class="inputPortLabel cell_CPU">mem_rdata</text></g><g transform="translate(0,70)" s:x="0" s:y="10" s:pid="in0" id="port_CPU~mem_wbusy"><text x="-3" y="-4" class="inputPortLabel cell_CPU">mem_wbusy</text></g><g transform="translate(0,90)" s:x="0" s:y="10" s:pid="in0" id="port_CPU~reset"><text x="-3" y="-4" class="inputPortLabel cell_CPU">reset</text></g><g transform="translate(30,10)" s:x="30" s:y="10" s:pid="out0" id="port_CPU~mem_addr"><text x="5" y="-4" style="fill:#000; stroke:none" class="cell_CPU">mem_addr</text></g><g transform="translate(30,30)" s:x="30" s:y="10" s:pid="out0" id="port_CPU~mem_rstrb"><text x="5" y="-4" style="fill:#000; stroke:none" class="cell_CPU">mem_rstrb</text></g><g transform="translate(30,50)" s:x="30" s:y="10" s:pid="out0" id="port_CPU~mem_wdata"><text x="5" y="-4" style="fill:#000; stroke:none" class="cell_CPU">mem_wdata</text></g><g transform="translate(30,70)" s:x="30" s:y="10" s:pid="out0" id="port_CPU~mem_wmask"><text x="5" y="-4" style="fill:#000; stroke:none" class="cell_CPU">mem_wmask</text></g></g><g s:type="generic" transform="translate(619,716)" s:width="30" s:height="40" id="cell_RAM"><text x="15" y="-4" class="nodelabel cell_RAM" s:attribute="ref">Memory</text><rect width="30" height="100" s:generic="body" class="cell_RAM"/><g transform="translate(0,10)" s:x="0" s:y="10" s:pid="in0" id="port_RAM~clk"><text x="-3" y="-4" class="inputPortLabel cell_RAM">clk</text></g><g transform="translate(0,30)" s:x="0" s:y="10" s:pid="in0" id="port_RAM~mem_addr"><text x="-3" y="-4" class="inputPortLabel cell_RAM">mem_addr</text></g><g transform="translate(0,50)" s:x="0" s:y="10" s:pid="in0" id="port_RAM~mem_rstrb"><text x="-3" y="-4" class="inputPortLabel cell_RAM">mem_rstrb</text></g><g transform="translate(0,70)" s:x="0" s:y="10" s:pid="in0" id="port_RAM~mem_wdata"><text x="-3" y="-4" class="inputPortLabel cell_RAM">mem_wdata</text></g><g transform="translate(0,90)" s:x="0" s:y="10" s:pid="in0" id="port_RAM~mem_wmask"><text x="-3" y="-4" class="inputPortLabel cell_RAM">mem_wmask</text></g><g transform="translate(30,10)" s:x="30" s:y="10" s:pid="out0" id="port_RAM~mem_rdata"><text x="5" y="-4" style="fill:#000; stroke:none" class="cell_RAM">mem_rdata</text></g></g><g s:type="generic" transform="translate(865,680.5)" s:width="30" s:height="40" id="cell_chip_select"><text x="15" y="-4" class="nodelabel cell_chip_select" s:attribute="ref">chip_select</text><rect width="30" height="160" s:generic="body" class="cell_chip_select"/><g transform="translate(0,10)" s:x="0" s:y="10" s:pid="in0" id="port_chip_select~chip0_dout"><text x="-3" y="-4" class="inputPortLabel cell_chip_select">chip0_dout</text></g><g transform="translate(0,30)" s:x="0" s:y="10" s:pid="in0" id="port_chip_select~chip1_dout"><text x="-3" y="-4" class="inputPortLabel cell_chip_select">chip1_dout</text></g><g transform="translate(0,50)" s:x="0" s:y="10" s:pid="in0" id="port_chip_select~chip2_dout"><text x="-3" y="-4" class="inputPortLabel cell_chip_select">chip2_dout</text></g><g transform="translate(0,70)" s:x="0" s:y="10" s:pid="in0" id="port_chip_select~chip3_dout"><text x="-3" y="-4" class="inputPortLabel cell_chip_select">chip3_dout</text></g><g transform="translate(0,90)" s:x="0" s:y="10" s:pid="in0" id="port_chip_select~chip4_dout"><text x="-3" y="-4" class="inputPortLabel cell_chip_select">chip4_dout</text></g><g transform="translate(0,110)" s:x="0" s:y="10" s:pid="in0" id="port_chip_select~chip5_dout"><text x="-3" y="-4" class="inputPortLabel cell_chip_select">chip5_dout</text></g><g transform="translate(0,130)" s:x="0" s:y="10" s:pid="in0" id="port_chip_select~chip6_dout"><text x="-3" y="-4" class="inputPortLabel cell_chip_select">chip6_dout</text></g><g transform="translate(0,150)" s:x="0" s:y="10" s:pid="in0" id="port_chip_select~mem_addr"><text x="-3" y="-4" class="inputPortLabel cell_chip_select">mem_addr</text></g><g transform="translate(30,10)" s:x="30" s:y="10" s:pid="out0" id="port_chip_select~cs"><text x="5" y="-4" style="fill:#000; stroke:none" class="cell_chip_select">cs</text></g><g transform="translate(30,30)" s:x="30" s:y="10" s:pid="out0" id="port_chip_select~mem_rdata"><text x="5" y="-4" style="fill:#000; stroke:none" class="cell_chip_select">mem_rdata</text></g></g><g s:type="generic" transform="translate(619.125,528)" s:width="30" s:height="40" id="cell_mult1"><text x="15" y="-4" class="nodelabel cell_mult1" s:attribute="ref">peripheral_mult</text><rect width="30" height="140" s:generic="body" class="cell_mult1"/><g transform="translate(0,10)" s:x="0" s:y="10" s:pid="in0" id="port_mult1~addr"><text x="-3" y="-4" class="inputPortLabel cell_mult1">addr</text></g><g transform="translate(0,30)" s:x="0" s:y="10" s:pid="in0" id="port_mult1~clk"><text x="-3" y="-4" class="inputPortLabel cell_mult1">clk</text></g><g transform="translate(0,50)" s:x="0" s:y="10" s:pid="in0" id="port_mult1~cs"><text x="-3" y="-4" class="inputPortLabel cell_mult1">cs</text></g><g transform="translate(0,70)" s:x="0" s:y="10" s:pid="in0" id="port_mult1~d_in"><text x="-3" y="-4" class="inputPortLabel cell_mult1">d_in</text></g><g transform="translate(0,90)" s:x="0" s:y="10" s:pid="in0" id="port_mult1~rd"><text x="-3" y="-4" class="inputPortLabel cell_mult1">rd</text></g><g transform="translate(0,110)" s:x="0" s:y="10" s:pid="in0" id="port_mult1~reset"><text x="-3" y="-4" class="inputPortLabel cell_mult1">reset</text></g><g transform="translate(0,130)" s:x="0" s:y="10" s:pid="in0" id="port_mult1~wr"><text x="-3" y="-4" class="inputPortLabel cell_mult1">wr</text></g><g transform="translate(30,10)" s:x="30" s:y="10" s:pid="out0" id="port_mult1~d_out"><text x="5" y="-4" style="fill:#000; stroke:none" class="cell_mult1">d_out</text></g></g><g s:type="generic" transform="translate(619.2727272727273,46.5)" s:width="30" s:height="40" id="cell_per_uart"><text x="15" y="-4" class="nodelabel cell_per_uart" s:attribute="ref">peripheral_uart</text><rect width="30" height="160" s:generic="body" class="cell_per_uart"/><g transform="translate(0,10)" s:x="0" s:y="10" s:pid="in0" id="port_per_uart~addr"><text x="-3" y="-4" class="inputPortLabel cell_per_uart">addr</text></g><g transform="translate(0,30)" s:x="0" s:y="10" s:pid="in0" id="port_per_uart~clk"><text x="-3" y="-4" class="inputPortLabel cell_per_uart">clk</text></g><g transform="translate(0,50)" s:x="0" s:y="10" s:pid="in0" id="port_per_uart~cs"><text x="-3" y="-4" class="inputPortLabel cell_per_uart">cs</text></g><g transform="translate(0,70)" s:x="0" s:y="10" s:pid="in0" id="port_per_uart~d_in"><text x="-3" y="-4" class="inputPortLabel cell_per_uart">d_in</text></g><g transform="translate(0,90)" s:x="0" s:y="10" s:pid="in0" id="port_per_uart~rd"><text x="-3" y="-4" class="inputPortLabel cell_per_uart">rd</text></g><g transform="translate(0,110)" s:x="0" s:y="10" s:pid="in0" id="port_per_uart~rst"><text x="-3" y="-4" class="inputPortLabel cell_per_uart">rst</text></g><g transform="translate(0,130)" s:x="0" s:y="10" s:pid="in0" id="port_per_uart~uart_rx"><text x="-3" y="-4" class="inputPortLabel cell_per_uart">uart_rx</text></g><g transform="translate(0,150)" s:x="0" s:y="10" s:pid="in0" id="port_per_uart~wr"><text x="-3" y="-4" class="inputPortLabel cell_per_uart">wr</text></g><g transform="translate(30,10)" s:x="30" s:y="10" s:pid="out0" id="port_per_uart~d_out"><text x="5" y="-4" style="fill:#000; stroke:none" class="cell_per_uart">d_out</text></g><g transform="translate(30,30)" s:x="30" s:y="10" s:pid="out0" id="port_per_uart~ledout"><text x="5" y="-4" style="fill:#000; stroke:none" class="cell_per_uart">ledout</text></g><g transform="translate(30,50)" s:x="30" s:y="10" s:pid="out0" id="port_per_uart~uart_tx"><text x="5" y="-4" style="fill:#000; stroke:none" class="cell_per_uart">uart_tx</text></g></g><g s:type="generic" transform="translate(619.1111111111111,254.5)" s:width="30" s:height="40" id="cell_perp_lasers"><text x="15" y="-4" class="nodelabel cell_perp_lasers" s:attribute="ref">perip_laser</text><rect width="30" height="160" s:generic="body" class="cell_perp_lasers"/><g transform="translate(0,10)" s:x="0" s:y="10" s:pid="in0" id="port_perp_lasers~addr"><text x="-3" y="-4" class="inputPortLabel cell_perp_lasers">addr</text></g><g transform="translate(0,30)" s:x="0" s:y="10" s:pid="in0" id="port_perp_lasers~clk"><text x="-3" y="-4" class="inputPortLabel cell_perp_lasers">clk</text></g><g transform="translate(0,50)" s:x="0" s:y="10" s:pid="in0" id="port_perp_lasers~cs"><text x="-3" y="-4" class="inputPortLabel cell_perp_lasers">cs</text></g><g transform="translate(0,70)" s:x="0" s:y="10" s:pid="in0" id="port_perp_lasers~d_in"><text x="-3" y="-4" class="inputPortLabel cell_perp_lasers">d_in</text></g><g transform="translate(0,90)" s:x="0" s:y="10" s:pid="in0" id="port_perp_lasers~laser"><text x="-3" y="-4" class="inputPortLabel cell_perp_lasers">laser</text></g><g transform="translate(0,110)" s:x="0" s:y="10" s:pid="in0" id="port_perp_lasers~rd"><text x="-3" y="-4" class="inputPortLabel cell_perp_lasers">rd</text></g><g transform="translate(0,130)" s:x="0" s:y="10" s:pid="in0" id="port_perp_lasers~rst"><text x="-3" y="-4" class="inputPortLabel cell_perp_lasers">rst</text></g><g transform="translate(0,150)" s:x="0" s:y="10" s:pid="in0" id="port_perp_lasers~wr"><text x="-3" y="-4" class="inputPortLabel cell_perp_lasers">wr</text></g><g transform="translate(30,10)" s:x="30" s:y="10" s:pid="out0" id="port_perp_lasers~d_out"><text x="5" y="-4" style="fill:#000; stroke:none" class="cell_perp_lasers">d_out</text></g></g><g s:type="inputExt" transform="translate(22,272.5)" s:width="30" s:height="20" id="cell_clk"><text x="15" y="-4" class="nodelabel cell_clk" s:attribute="ref">clk</text><s:alias val="$_inputExt_"/><path d="M0,0 L0,20 L15,20 L30,10 L15,0 Z" class="cell_clk"/><g s:x="30" s:y="10" s:pid="Y"/></g><g s:type="inputExt" transform="translate(22,337.5)" s:width="30" s:height="20" id="cell_resetn"><text x="15" y="-4" class="nodelabel cell_resetn" s:attribute="ref">resetn</text><s:alias val="$_inputExt_"/><path d="M0,0 L0,20 L15,20 L30,10 L15,0 Z" class="cell_resetn"/><g s:x="30" s:y="10" s:pid="Y"/></g><g s:type="outputExt" transform="translate(865,22)" s:width="30" s:height="20" id="cell_LEDS"><text x="15" y="-4" class="nodelabel cell_LEDS" s:attribute="ref">LEDS</text><s:alias val="$_outputExt_"/><path d="M30,0 L30,20 L15,20 L0,10 L15,0 Z" class="cell_LEDS"/><g s:x="0" s:y="10" s:pid="A"/></g><g s:type="inputExt" transform="translate(444,167)" s:width="30" s:height="20" id="cell_RXD"><text x="15" y="-4" class="nodelabel cell_RXD" s:attribute="ref">RXD</text><s:alias val="$_inputExt_"/><path d="M0,0 L0,20 L15,20 L30,10 L15,0 Z" class="cell_RXD"/><g s:x="30" s:y="10" s:pid="Y"/></g><g s:type="outputExt" transform="translate(865,87)" s:width="30" s:height="20" id="cell_TXD"><text x="15" y="-4" class="nodelabel cell_TXD" s:attribute="ref">TXD</text><s:alias val="$_outputExt_"/><path d="M30,0 L30,20 L15,20 L0,10 L15,0 Z" class="cell_TXD"/><g s:x="0" s:y="10" s:pid="A"/></g><g s:type="inputExt" transform="translate(378,296.5)" s:width="30" s:height="20" id="cell_LASER"><text x="15" y="-4" class="nodelabel cell_LASER" s:attribute="ref">LASER</text><s:alias val="$_inputExt_"/><path d="M0,0 L0,20 L15,20 L30,10 L15,0 Z" class="cell_LASER"/><g s:x="30" s:y="10" s:pid="Y"/></g><g s:type="constant" transform="translate(22,526)" s:width="30" s:height="20" id="cell_0"><text x="15" y="-4" class="nodelabel cell_0" s:attribute="ref">0</text><s:alias val="$_constant_"/><rect width="30" height="20" class="cell_0"/><g s:x="31" s:y="10" s:pid="Y"/></g><g s:type="join" transform="translate(209.75,740.5)" s:width="4" s:height="40" id="cell_$join$,11,11,11,11,"><rect width="5" height="80" class="splitjoinBody" s:generic="body"/><s:alias val="$_join_"/><g s:x="5" s:y="20" s:pid="out"/><g transform="translate(0,10)" s:x="0" s:y="10" s:pid="in0"><text x="-3" y="-4" class="inputPortLabel">0</text></g><g transform="translate(0,30)" s:x="0" s:y="10" s:pid="in0"><text x="-3" y="-4" class="inputPortLabel">1</text></g><g transform="translate(0,50)" s:x="0" s:y="10" s:pid="in0"><text x="-3" y="-4" class="inputPortLabel">2</text></g><g transform="translate(0,70)" s:x="0" s:y="10" s:pid="in0"><text x="-3" y="-4" class="inputPortLabel">3</text></g></g><g s:type="split" transform="translate(46,780.5)" s:width="5" s:height="40" id="cell_$split$,248,249,250,251,252,253,11,"><rect width="5" height="80" class="splitjoinBody" s:generic="body"/><s:alias val="$_split_"/><g s:x="0" s:y="20" s:pid="in"/><g transform="translate(4,10)" s:x="4" s:y="10" s:pid="out0"><text x="5" y="-4">6</text></g><g transform="translate(4,30)" s:x="4" s:y="10" s:pid="out0"><text x="5" y="-4">2</text></g><g transform="translate(4,50)" s:x="4" s:y="10" s:pid="out0"><text x="5" y="-4">0</text></g><g transform="translate(4,70)" s:x="4" s:y="10" s:pid="out0"><text x="5" y="-4">1</text></g></g><line x1="51" x2="138" y1="791" y2="791" class="net_11 width_1" style="stroke-width: 1"/><line x1="138" x2="138" y1="791" y2="715" class="net_11 width_1" style="stroke-width: 1"/><circle cx="138" cy="791" r="2" style="fill:#000" class="net_11 width_1"/><line x1="138" x2="443.6666666666667" y1="715" y2="715" class="net_11 width_1" style="stroke-width: 1"/><line x1="51" x2="138" y1="791" y2="791" class="net_11 width_1" style="stroke-width: 1"/><line x1="138" x2="138" y1="791" y2="751" class="net_11 width_1" style="stroke-width: 1"/><circle cx="138" cy="751" r="2" style="fill:#000" class="net_11 width_1"/><line x1="138" x2="209.75" y1="751" y2="751" class="net_11 width_1" style="stroke-width: 1"/><line x1="51" x2="138" y1="791" y2="791" class="net_11 width_1" style="stroke-width: 1"/><line x1="138" x2="138" y1="791" y2="771" class="net_11 width_1" style="stroke-width: 1"/><circle cx="138" cy="771" r="2" style="fill:#000" class="net_11 width_1"/><line x1="138" x2="209.75" y1="771" y2="771" class="net_11 width_1" style="stroke-width: 1"/><line x1="51" x2="209.75" y1="791" y2="791" class="net_11 width_1" style="stroke-width: 1"/><line x1="51" x2="138" y1="791" y2="791" class="net_11 width_1" style="stroke-width: 1"/><line x1="138" x2="138" y1="791" y2="830.5" class="net_11 width_1" style="stroke-width: 1"/><line x1="138" x2="210.25" y1="830.5" y2="830.5" class="net_11 width_1" style="stroke-width: 1"/><line x1="210.25" x2="210.25" y1="830.5" y2="811.5" class="net_11 width_1" style="stroke-width: 1"/><line x1="234" x2="329" y1="496" y2="496" class="net_12 width_1" style="stroke-width: 1"/><line x1="329" x2="329" y1="496" y2="730" class="net_12 width_1" style="stroke-width: 1"/><circle cx="329" cy="496" r="2" style="fill:#000" class="net_12 width_1"/><line x1="329" x2="443.6666666666667" y1="730" y2="730" class="net_12 width_1" style="stroke-width: 1"/><line x1="234" x2="329" y1="496" y2="496" class="net_12 width_1" style="stroke-width: 1"/><line x1="329" x2="329" y1="496" y2="618.5" class="net_12 width_1" style="stroke-width: 1"/><circle cx="329" cy="618.5" r="2" style="fill:#000" class="net_12 width_1"/><line x1="329" x2="619.125" y1="618.5" y2="618.5" class="net_12 width_1" style="stroke-width: 1"/><line x1="234" x2="329" y1="496" y2="496" class="net_12 width_1" style="stroke-width: 1"/><line x1="329" x2="329" y1="496" y2="137" class="net_12 width_1" style="stroke-width: 1"/><line x1="329" x2="619.2727272727273" y1="137" y2="137" class="net_12 width_1" style="stroke-width: 1"/><line x1="234" x2="329" y1="496" y2="496" class="net_12 width_1" style="stroke-width: 1"/><line x1="329" x2="329" y1="496" y2="326.5" class="net_12 width_1" style="stroke-width: 1"/><line x1="329" x2="494" y1="326.5" y2="326.5" class="net_12 width_1" style="stroke-width: 1"/><line x1="494" x2="494" y1="326.5" y2="365" class="net_12 width_1" style="stroke-width: 1"/><circle cx="329" cy="326.5" r="2" style="fill:#000" class="net_12 width_1"/><line x1="494" x2="619.1111111111111" y1="365" y2="365" class="net_12 width_1" style="stroke-width: 1"/><line x1="215.75" x2="353" y1="761" y2="761" class="net_11,11,11,11 width_4" style="stroke-width: 2"/><line x1="353" x2="353" y1="761" y2="799" class="net_11,11,11,11 width_4" style="stroke-width: 2"/><line x1="353" x2="378" y1="799" y2="799" class="net_11,11,11,11 width_4" style="stroke-width: 2"/><line x1="234" x2="309" y1="536" y2="536" class="net_14,15,16,17 width_4" style="stroke-width: 2"/><line x1="309" x2="309" y1="536" y2="814" class="net_14,15,16,17 width_4" style="stroke-width: 2"/><circle cx="309" cy="536" r="3" style="fill:#000" class="net_14,15,16,17 width_4"/><line x1="309" x2="378" y1="814" y2="814" class="net_14,15,16,17 width_4" style="stroke-width: 2"/><line x1="234" x2="309" y1="536" y2="536" class="net_14,15,16,17 width_4" style="stroke-width: 2"/><line x1="309" x2="309" y1="536" y2="397.5" class="net_14,15,16,17 width_4" style="stroke-width: 2"/><line x1="309" x2="445.5" y1="397.5" y2="397.5" class="net_14,15,16,17 width_4" style="stroke-width: 2"/><line x1="52" x2="443" y1="347.5" y2="347.5" class="net_3 width_1" style="stroke-width: 1"/><line x1="52" x2="98" y1="347.5" y2="347.5" class="net_3 width_1" style="stroke-width: 1"/><line x1="98" x2="98" y1="347.5" y2="556" class="net_3 width_1" style="stroke-width: 1"/><circle cx="98" cy="347.5" r="2" style="fill:#000" class="net_3 width_1"/><line x1="98" x2="203" y1="556" y2="556" class="net_3 width_1" style="stroke-width: 1"/><line x1="52" x2="108" y1="282.5" y2="282.5" class="net_2 width_1" style="stroke-width: 1"/><line x1="108" x2="108" y1="282.5" y2="476" class="net_2 width_1" style="stroke-width: 1"/><circle cx="108" cy="282.5" r="2" style="fill:#000" class="net_2 width_1"/><circle cx="108" cy="476" r="2" style="fill:#000" class="net_2 width_1"/><line x1="108" x2="203" y1="476" y2="476" class="net_2 width_1" style="stroke-width: 1"/><line x1="52" x2="108" y1="282.5" y2="282.5" class="net_2 width_1" style="stroke-width: 1"/><line x1="108" x2="108" y1="282.5" y2="684" class="net_2 width_1" style="stroke-width: 1"/><line x1="108" x2="514" y1="684" y2="684" class="net_2 width_1" style="stroke-width: 1"/><line x1="514" x2="514" y1="684" y2="726.5" class="net_2 width_1" style="stroke-width: 1"/><line x1="514" x2="619" y1="726.5" y2="726.5" class="net_2 width_1" style="stroke-width: 1"/><line x1="52" x2="108" y1="282.5" y2="282.5" class="net_2 width_1" style="stroke-width: 1"/><line x1="108" x2="108" y1="282.5" y2="444.5" class="net_2 width_1" style="stroke-width: 1"/><line x1="108" x2="494" y1="444.5" y2="444.5" class="net_2 width_1" style="stroke-width: 1"/><line x1="494" x2="494" y1="444.5" y2="558.5" class="net_2 width_1" style="stroke-width: 1"/><circle cx="108" cy="444.5" r="2" style="fill:#000" class="net_2 width_1"/><line x1="494" x2="619.125" y1="558.5" y2="558.5" class="net_2 width_1" style="stroke-width: 1"/><line x1="52" x2="108" y1="282.5" y2="282.5" class="net_2 width_1" style="stroke-width: 1"/><line x1="108" x2="108" y1="282.5" y2="77" class="net_2 width_1" style="stroke-width: 1"/><line x1="108" x2="619.2727272727273" y1="77" y2="77" class="net_2 width_1" style="stroke-width: 1"/><line x1="52" x2="108" y1="282.5" y2="282.5" class="net_2 width_1" style="stroke-width: 1"/><line x1="108" x2="108" y1="282.5" y2="219.5" class="net_2 width_1" style="stroke-width: 1"/><line x1="108" x2="534" y1="219.5" y2="219.5" class="net_2 width_1" style="stroke-width: 1"/><line x1="534" x2="534" y1="219.5" y2="285" class="net_2 width_1" style="stroke-width: 1"/><circle cx="108" cy="219.5" r="2" style="fill:#000" class="net_2 width_1"/><line x1="534" x2="619.1111111111111" y1="285" y2="285" class="net_2 width_1" style="stroke-width: 1"/><line x1="53" x2="118" y1="536" y2="536" class="net_254 width_1" style="stroke-width: 1"/><line x1="118" x2="118" y1="536" y2="496" class="net_254 width_1" style="stroke-width: 1"/><circle cx="118" cy="536" r="2" style="fill:#000" class="net_254 width_1"/><line x1="118" x2="203" y1="496" y2="496" class="net_254 width_1" style="stroke-width: 1"/><line x1="53" x2="203" y1="536" y2="536" class="net_254 width_1" style="stroke-width: 1"/><line x1="896" x2="961" y1="711" y2="711" class="net_56,57,58,59,60,61,62,63,64,65,66,67,68,69,70,71,72,73,74,75,76,77,78,79,80,81,82,83,84,85,86,87 width_32" style="stroke-width: 2"/><line x1="961" x2="961" y1="711" y2="853.5" class="net_56,57,58,59,60,61,62,63,64,65,66,67,68,69,70,71,72,73,74,75,76,77,78,79,80,81,82,83,84,85,86,87 width_32" style="stroke-width: 2"/><line x1="961" x2="128" y1="853.5" y2="853.5" class="net_56,57,58,59,60,61,62,63,64,65,66,67,68,69,70,71,72,73,74,75,76,77,78,79,80,81,82,83,84,85,86,87 width_32" style="stroke-width: 2"/><line x1="128" x2="128" y1="853.5" y2="516" class="net_56,57,58,59,60,61,62,63,64,65,66,67,68,69,70,71,72,73,74,75,76,77,78,79,80,81,82,83,84,85,86,87 width_32" style="stroke-width: 2"/><line x1="128" x2="203" y1="516" y2="516" class="net_56,57,58,59,60,61,62,63,64,65,66,67,68,69,70,71,72,73,74,75,76,77,78,79,80,81,82,83,84,85,86,87 width_32" style="stroke-width: 2"/><line x1="234" x2="299" y1="476" y2="476" class="net_24,25,26,27,28,29,30,31,32,33,34,35,36,37,38,39,40,41,42,43,44,45,46,47,48,49,50,51,52,53,54,55 width_32" style="stroke-width: 2"/><line x1="299" x2="299" y1="476" y2="699" class="net_24,25,26,27,28,29,30,31,32,33,34,35,36,37,38,39,40,41,42,43,44,45,46,47,48,49,50,51,52,53,54,55 width_32" style="stroke-width: 2"/><line x1="299" x2="504" y1="699" y2="699" class="net_24,25,26,27,28,29,30,31,32,33,34,35,36,37,38,39,40,41,42,43,44,45,46,47,48,49,50,51,52,53,54,55 width_32" style="stroke-width: 2"/><line x1="504" x2="504" y1="699" y2="746.5" class="net_24,25,26,27,28,29,30,31,32,33,34,35,36,37,38,39,40,41,42,43,44,45,46,47,48,49,50,51,52,53,54,55 width_32" style="stroke-width: 2"/><circle cx="299" cy="476" r="3" style="fill:#000" class="net_24,25,26,27,28,29,30,31,32,33,34,35,36,37,38,39,40,41,42,43,44,45,46,47,48,49,50,51,52,53,54,55 width_32"/><circle cx="299" cy="699" r="3" style="fill:#000" class="net_24,25,26,27,28,29,30,31,32,33,34,35,36,37,38,39,40,41,42,43,44,45,46,47,48,49,50,51,52,53,54,55 width_32"/><line x1="504" x2="619" y1="746.5" y2="746.5" class="net_24,25,26,27,28,29,30,31,32,33,34,35,36,37,38,39,40,41,42,43,44,45,46,47,48,49,50,51,52,53,54,55 width_32" style="stroke-width: 2"/><line x1="234" x2="299" y1="476" y2="476" class="net_24,25,26,27,28,29,30,31,32,33,34,35,36,37,38,39,40,41,42,43,44,45,46,47,48,49,50,51,52,53,54,55 width_32" style="stroke-width: 2"/><line x1="299" x2="299" y1="476" y2="831" class="net_24,25,26,27,28,29,30,31,32,33,34,35,36,37,38,39,40,41,42,43,44,45,46,47,48,49,50,51,52,53,54,55 width_32" style="stroke-width: 2"/><line x1="299" x2="865" y1="831" y2="831" class="net_24,25,26,27,28,29,30,31,32,33,34,35,36,37,38,39,40,41,42,43,44,45,46,47,48,49,50,51,52,53,54,55 width_32" style="stroke-width: 2"/><line x1="234" x2="299" y1="476" y2="476" class="net_24,25,26,27,28,29,30,31,32,33,34,35,36,37,38,39,40,41,42,43,44,45,46,47,48,49,50,51,52,53,54,55 width_32" style="stroke-width: 2"/><line x1="299" x2="299" y1="476" y2="428.5" class="net_24,25,26,27,28,29,30,31,32,33,34,35,36,37,38,39,40,41,42,43,44,45,46,47,48,49,50,51,52,53,54,55 width_32" style="stroke-width: 2"/><line x1="299" x2="504" y1="428.5" y2="428.5" class="net_24,25,26,27,28,29,30,31,32,33,34,35,36,37,38,39,40,41,42,43,44,45,46,47,48,49,50,51,52,53,54,55 width_32" style="stroke-width: 2"/><line x1="504" x2="504" y1="428.5" y2="538.5" class="net_24,25,26,27,28,29,30,31,32,33,34,35,36,37,38,39,40,41,42,43,44,45,46,47,48,49,50,51,52,53,54,55 width_32" style="stroke-width: 2"/><circle cx="299" cy="428.5" r="3" style="fill:#000" class="net_24,25,26,27,28,29,30,31,32,33,34,35,36,37,38,39,40,41,42,43,44,45,46,47,48,49,50,51,52,53,54,55 width_32"/><line x1="504" x2="619.125" y1="538.5" y2="538.5" class="net_24,25,26,27,28,29,30,31,32,33,34,35,36,37,38,39,40,41,42,43,44,45,46,47,48,49,50,51,52,53,54,55 width_32" style="stroke-width: 2"/><line x1="234" x2="299" y1="476" y2="476" class="net_24,25,26,27,28,29,30,31,32,33,34,35,36,37,38,39,40,41,42,43,44,45,46,47,48,49,50,51,52,53,54,55 width_32" style="stroke-width: 2"/><line x1="299" x2="299" y1="476" y2="57" class="net_24,25,26,27,28,29,30,31,32,33,34,35,36,37,38,39,40,41,42,43,44,45,46,47,48,49,50,51,52,53,54,55 width_32" style="stroke-width: 2"/><line x1="299" x2="619.2727272727273" y1="57" y2="57" class="net_24,25,26,27,28,29,30,31,32,33,34,35,36,37,38,39,40,41,42,43,44,45,46,47,48,49,50,51,52,53,54,55 width_32" style="stroke-width: 2"/><line x1="234" x2="299" y1="476" y2="476" class="net_24,25,26,27,28,29,30,31,32,33,34,35,36,37,38,39,40,41,42,43,44,45,46,47,48,49,50,51,52,53,54,55 width_32" style="stroke-width: 2"/><line x1="299" x2="299" y1="476" y2="203.5" class="net_24,25,26,27,28,29,30,31,32,33,34,35,36,37,38,39,40,41,42,43,44,45,46,47,48,49,50,51,52,53,54,55 width_32" style="stroke-width: 2"/><line x1="299" x2="554" y1="203.5" y2="203.5" class="net_24,25,26,27,28,29,30,31,32,33,34,35,36,37,38,39,40,41,42,43,44,45,46,47,48,49,50,51,52,53,54,55 width_32" style="stroke-width: 2"/><line x1="554" x2="554" y1="203.5" y2="265" class="net_24,25,26,27,28,29,30,31,32,33,34,35,36,37,38,39,40,41,42,43,44,45,46,47,48,49,50,51,52,53,54,55 width_32" style="stroke-width: 2"/><circle cx="299" cy="203.5" r="3" style="fill:#000" class="net_24,25,26,27,28,29,30,31,32,33,34,35,36,37,38,39,40,41,42,43,44,45,46,47,48,49,50,51,52,53,54,55 width_32"/><line x1="554" x2="619.1111111111111" y1="265" y2="265" class="net_24,25,26,27,28,29,30,31,32,33,34,35,36,37,38,39,40,41,42,43,44,45,46,47,48,49,50,51,52,53,54,55 width_32" style="stroke-width: 2"/><line x1="473.6666666666667" x2="494" y1="722.5" y2="722.5" class="net_13 width_1" style="stroke-width: 1"/><line x1="494" x2="494" y1="722.5" y2="766.5" class="net_13 width_1" style="stroke-width: 1"/><line x1="494" x2="619" y1="766.5" y2="766.5" class="net_13 width_1" style="stroke-width: 1"/><line x1="234" x2="319" y1="516" y2="516" class="net_88,89,90,91,92,93,94,95,96,97,98,99,100,101,102,103,104,105,106,107,108,109,110,111,112,113,114,115,116,117,118,119 width_32" style="stroke-width: 2"/><line x1="319" x2="319" y1="516" y2="746" class="net_88,89,90,91,92,93,94,95,96,97,98,99,100,101,102,103,104,105,106,107,108,109,110,111,112,113,114,115,116,117,118,119 width_32" style="stroke-width: 2"/><line x1="319" x2="484" y1="746" y2="746" class="net_88,89,90,91,92,93,94,95,96,97,98,99,100,101,102,103,104,105,106,107,108,109,110,111,112,113,114,115,116,117,118,119 width_32" style="stroke-width: 2"/><line x1="484" x2="484" y1="746" y2="786.5" class="net_88,89,90,91,92,93,94,95,96,97,98,99,100,101,102,103,104,105,106,107,108,109,110,111,112,113,114,115,116,117,118,119 width_32" style="stroke-width: 2"/><circle cx="319" cy="516" r="3" style="fill:#000" class="net_88,89,90,91,92,93,94,95,96,97,98,99,100,101,102,103,104,105,106,107,108,109,110,111,112,113,114,115,116,117,118,119 width_32"/><line x1="484" x2="619" y1="786.5" y2="786.5" class="net_88,89,90,91,92,93,94,95,96,97,98,99,100,101,102,103,104,105,106,107,108,109,110,111,112,113,114,115,116,117,118,119 width_32" style="stroke-width: 2"/><line x1="234" x2="319" y1="516" y2="516" class="net_88,89,90,91,92,93,94,95,96,97,98,99,100,101,102,103,104,105,106,107,108,109,110,111,112,113,114,115,116,117,118,119 width_32" style="stroke-width: 2"/><line x1="319" x2="319" y1="516" y2="598.5" class="net_88,89,90,91,92,93,94,95,96,97,98,99,100,101,102,103,104,105,106,107,108,109,110,111,112,113,114,115,116,117,118,119 width_32" style="stroke-width: 2"/><circle cx="319" cy="598.5" r="3" style="fill:#000" class="net_88,89,90,91,92,93,94,95,96,97,98,99,100,101,102,103,104,105,106,107,108,109,110,111,112,113,114,115,116,117,118,119 width_32"/><line x1="319" x2="619.125" y1="598.5" y2="598.5" class="net_88,89,90,91,92,93,94,95,96,97,98,99,100,101,102,103,104,105,106,107,108,109,110,111,112,113,114,115,116,117,118,119 width_32" style="stroke-width: 2"/><line x1="234" x2="319" y1="516" y2="516" class="net_88,89,90,91,92,93,94,95,96,97,98,99,100,101,102,103,104,105,106,107,108,109,110,111,112,113,114,115,116,117,118,119 width_32" style="stroke-width: 2"/><line x1="319" x2="319" y1="516" y2="117" class="net_88,89,90,91,92,93,94,95,96,97,98,99,100,101,102,103,104,105,106,107,108,109,110,111,112,113,114,115,116,117,118,119 width_32" style="stroke-width: 2"/><line x1="319" x2="619.2727272727273" y1="117" y2="117" class="net_88,89,90,91,92,93,94,95,96,97,98,99,100,101,102,103,104,105,106,107,108,109,110,111,112,113,114,115,116,117,118,119 width_32" style="stroke-width: 2"/><line x1="234" x2="319" y1="516" y2="516" class="net_88,89,90,91,92,93,94,95,96,97,98,99,100,101,102,103,104,105,106,107,108,109,110,111,112,113,114,115,116,117,118,119 width_32" style="stroke-width: 2"/><line x1="319" x2="319" y1="516" y2="245.5" class="net_88,89,90,91,92,93,94,95,96,97,98,99,100,101,102,103,104,105,106,107,108,109,110,111,112,113,114,115,116,117,118,119 width_32" style="stroke-width: 2"/><line x1="319" x2="514" y1="245.5" y2="245.5" class="net_88,89,90,91,92,93,94,95,96,97,98,99,100,101,102,103,104,105,106,107,108,109,110,111,112,113,114,115,116,117,118,119 width_32" style="stroke-width: 2"/><line x1="514" x2="514" y1="245.5" y2="325" class="net_88,89,90,91,92,93,94,95,96,97,98,99,100,101,102,103,104,105,106,107,108,109,110,111,112,113,114,115,116,117,118,119 width_32" style="stroke-width: 2"/><circle cx="319" cy="245.5" r="3" style="fill:#000" class="net_88,89,90,91,92,93,94,95,96,97,98,99,100,101,102,103,104,105,106,107,108,109,110,111,112,113,114,115,116,117,118,119 width_32"/><line x1="514" x2="619.1111111111111" y1="325" y2="325" class="net_88,89,90,91,92,93,94,95,96,97,98,99,100,101,102,103,104,105,106,107,108,109,110,111,112,113,114,115,116,117,118,119 width_32" style="stroke-width: 2"/><line x1="408" x2="619" y1="806.5" y2="806.5" class="net_18,19,20,21 width_4" style="stroke-width: 2"/><line x1="650.2727272727273" x2="725" y1="57" y2="57" class="net_152,153,154,155,156,157,158,159,160,161,162,163,164,165,166,167,168,169,170,171,172,173,174,175,176,177,178,179,180,181,182,183 width_32" style="stroke-width: 2"/><line x1="725" x2="725" y1="57" y2="245" class="net_152,153,154,155,156,157,158,159,160,161,162,163,164,165,166,167,168,169,170,171,172,173,174,175,176,177,178,179,180,181,182,183 width_32" style="stroke-width: 2"/><line x1="725" x2="794" y1="245" y2="245" class="net_152,153,154,155,156,157,158,159,160,161,162,163,164,165,166,167,168,169,170,171,172,173,174,175,176,177,178,179,180,181,182,183 width_32" style="stroke-width: 2"/><line x1="794" x2="794" y1="245" y2="691" class="net_152,153,154,155,156,157,158,159,160,161,162,163,164,165,166,167,168,169,170,171,172,173,174,175,176,177,178,179,180,181,182,183 width_32" style="stroke-width: 2"/><line x1="794" x2="865" y1="691" y2="691" class="net_152,153,154,155,156,157,158,159,160,161,162,163,164,165,166,167,168,169,170,171,172,173,174,175,176,177,178,179,180,181,182,183 width_32" style="stroke-width: 2"/><line x1="650.1111111111111" x2="784" y1="265" y2="265" class="net_184,185,186,187,188,189,190,191,192,193,194,195,196,197,198,199,200,201,202,203,204,205,206,207,208,209,210,211,212,213,214,215 width_32" style="stroke-width: 2"/><line x1="784" x2="784" y1="265" y2="711" class="net_184,185,186,187,188,189,190,191,192,193,194,195,196,197,198,199,200,201,202,203,204,205,206,207,208,209,210,211,212,213,214,215 width_32" style="stroke-width: 2"/><line x1="784" x2="865" y1="711" y2="711" class="net_184,185,186,187,188,189,190,191,192,193,194,195,196,197,198,199,200,201,202,203,204,205,206,207,208,209,210,211,212,213,214,215 width_32" style="stroke-width: 2"/><line x1="650.125" x2="774" y1="538.5" y2="538.5" class="net_216,217,218,219,220,221,222,223,224,225,226,227,228,229,230,231,232,233,234,235,236,237,238,239,240,241,242,243,244,245,246,247 width_32" style="stroke-width: 2"/><line x1="774" x2="774" y1="538.5" y2="731" class="net_216,217,218,219,220,221,222,223,224,225,226,227,228,229,230,231,232,233,234,235,236,237,238,239,240,241,242,243,244,245,246,247 width_32" style="stroke-width: 2"/><line x1="774" x2="865" y1="731" y2="731" class="net_216,217,218,219,220,221,222,223,224,225,226,227,228,229,230,231,232,233,234,235,236,237,238,239,240,241,242,243,244,245,246,247 width_32" style="stroke-width: 2"/><line x1="764" x2="764" y1="687.5" y2="751" class="net_ width_1" style="stroke-width: 1"/><circle cx="764" cy="751" r="2" style="fill:#000" class="net_ width_1"/><line x1="764" x2="865" y1="751" y2="751" class="net_ width_1" style="stroke-width: 1"/><line x1="764" x2="764" y1="687.5" y2="771" class="net_ width_1" style="stroke-width: 1"/><circle cx="764" cy="771" r="2" style="fill:#000" class="net_ width_1"/><line x1="764" x2="865" y1="771" y2="771" class="net_ width_1" style="stroke-width: 1"/><line x1="764" x2="764" y1="687.5" y2="791" class="net_ width_1" style="stroke-width: 1"/><line x1="764" x2="865" y1="791" y2="791" class="net_ width_1" style="stroke-width: 1"/><line x1="650" x2="754" y1="726.5" y2="726.5" class="net_120,121,122,123,124,125,126,127,128,129,130,131,132,133,134,135,136,137,138,139,140,141,142,143,144,145,146,147,148,149,150,151 width_32" style="stroke-width: 2"/><line x1="754" x2="754" y1="726.5" y2="811" class="net_120,121,122,123,124,125,126,127,128,129,130,131,132,133,134,135,136,137,138,139,140,141,142,143,144,145,146,147,148,149,150,151 width_32" style="stroke-width: 2"/><line x1="754" x2="865" y1="811" y2="811" class="net_120,121,122,123,124,125,126,127,128,129,130,131,132,133,134,135,136,137,138,139,140,141,142,143,144,145,146,147,148,149,150,151 width_32" style="stroke-width: 2"/><line x1="51" x2="68" y1="811" y2="811" class="net_250 width_1" style="stroke-width: 1"/><line x1="68" x2="68" y1="811" y2="578.5" class="net_250 width_1" style="stroke-width: 1"/><line x1="68" x2="619.125" y1="578.5" y2="578.5" class="net_250 width_1" style="stroke-width: 1"/><line x1="471" x2="484" y1="347.5" y2="347.5" class="net_22 width_1" style="stroke-width: 1"/><line x1="484" x2="484" y1="347.5" y2="638.5" class="net_22 width_1" style="stroke-width: 1"/><circle cx="484" cy="347.5" r="2" style="fill:#000" class="net_22 width_1"/><line x1="484" x2="619.125" y1="638.5" y2="638.5" class="net_22 width_1" style="stroke-width: 1"/><line x1="471" x2="484" y1="347.5" y2="347.5" class="net_22 width_1" style="stroke-width: 1"/><line x1="484" x2="484" y1="347.5" y2="157" class="net_22 width_1" style="stroke-width: 1"/><line x1="484" x2="619.2727272727273" y1="157" y2="157" class="net_22 width_1" style="stroke-width: 1"/><line x1="471" x2="484" y1="347.5" y2="347.5" class="net_22 width_1" style="stroke-width: 1"/><line x1="484" x2="484" y1="347.5" y2="385" class="net_22 width_1" style="stroke-width: 1"/><circle cx="484" cy="385" r="2" style="fill:#000" class="net_22 width_1"/><line x1="484" x2="619.1111111111111" y1="385" y2="385" class="net_22 width_1" style="stroke-width: 1"/><line x1="473.5" x2="544" y1="405" y2="405" class="net_23 width_1" style="stroke-width: 1"/><line x1="544" x2="544" y1="405" y2="658.5" class="net_23 width_1" style="stroke-width: 1"/><circle cx="544" cy="405" r="2" style="fill:#000" class="net_23 width_1"/><line x1="544" x2="619.125" y1="658.5" y2="658.5" class="net_23 width_1" style="stroke-width: 1"/><line x1="473.5" x2="544" y1="405" y2="405" class="net_23 width_1" style="stroke-width: 1"/><line x1="544" x2="544" y1="405" y2="197" class="net_23 width_1" style="stroke-width: 1"/><line x1="544" x2="619.2727272727273" y1="197" y2="197" class="net_23 width_1" style="stroke-width: 1"/><line x1="473.5" x2="619.1111111111111" y1="405" y2="405" class="net_23 width_1" style="stroke-width: 1"/><line x1="51" x2="78" y1="831" y2="831" class="net_248 width_1" style="stroke-width: 1"/><line x1="78" x2="78" y1="831" y2="97" class="net_248 width_1" style="stroke-width: 1"/><line x1="78" x2="619.2727272727273" y1="97" y2="97" class="net_248 width_1" style="stroke-width: 1"/><line x1="474" x2="619.2727272727273" y1="177" y2="177" class="net_5 width_1" style="stroke-width: 1"/><line x1="51" x2="88" y1="851" y2="851" class="net_249 width_1" style="stroke-width: 1"/><line x1="88" x2="88" y1="851" y2="230.5" class="net_249 width_1" style="stroke-width: 1"/><line x1="88" x2="524" y1="230.5" y2="230.5" class="net_249 width_1" style="stroke-width: 1"/><line x1="524" x2="524" y1="230.5" y2="305" class="net_249 width_1" style="stroke-width: 1"/><line x1="524" x2="619.1111111111111" y1="305" y2="305" class="net_249 width_1" style="stroke-width: 1"/><line x1="408" x2="504" y1="306.5" y2="306.5" class="net_7,8,9,10 width_4" style="stroke-width: 2"/><line x1="504" x2="504" y1="306.5" y2="345" class="net_7,8,9,10 width_4" style="stroke-width: 2"/><line x1="504" x2="619.1111111111111" y1="345" y2="345" class="net_7,8,9,10 width_4" style="stroke-width: 2"/><line x1="650.2727272727273" x2="715" y1="77" y2="77" class="net_4 width_1" style="stroke-width: 1"/><line x1="715" x2="715" y1="77" y2="32" class="net_4 width_1" style="stroke-width: 1"/><line x1="715" x2="865" y1="32" y2="32" class="net_4 width_1" style="stroke-width: 1"/><line x1="650.2727272727273" x2="865" y1="97" y2="97" class="net_6 width_1" style="stroke-width: 1"/><line x1="896" x2="971" y1="691" y2="691" class="net_248,249,250,251,252,253,11 width_7" style="stroke-width: 2"/><line x1="971" x2="971" y1="691" y2="870.5" class="net_248,249,250,251,252,253,11 width_7" style="stroke-width: 2"/><line x1="971" x2="12" y1="870.5" y2="870.5" class="net_248,249,250,251,252,253,11 width_7" style="stroke-width: 2"/><line x1="12" x2="12" y1="870.5" y2="801" class="net_248,249,250,251,252,253,11 width_7" style="stroke-width: 2"/><line x1="12" x2="46" y1="801" y2="801" class="net_248,249,250,251,252,253,11 width_7" style="stroke-width: 2"/><rect x="340" y="756" width="16" height="9" class="net_11,11,11,11 width_4 busLabel_4" style="fill: white; stroke: none"/><text x="339" y="764" class="net_11,11,11,11 width_4 busLabel_4">/4/</text><rect x="340" y="392.5" width="16" height="9" class="net_14,15,16,17 width_4 busLabel_4" style="fill: white; stroke: none"/><text x="339" y="400.5" class="net_14,15,16,17 width_4 busLabel_4">/4/</text><rect x="340" y="392.5" width="16" height="9" class="net_14,15,16,17 width_4 busLabel_4" style="fill: white; stroke: none"/><text x="339" y="400.5" class="net_14,15,16,17 width_4 busLabel_4">/4/</text><rect x="457.5" y="848.5" width="22" height="9" class="net_56,57,58,59,60,61,62,63,64,65,66,67,68,69,70,71,72,73,74,75,76,77,78,79,80,81,82,83,84,85,86,87 width_32 busLabel_32" style="fill: white; stroke: none"/><text x="456.5" y="856.5" class="net_56,57,58,59,60,61,62,63,64,65,66,67,68,69,70,71,72,73,74,75,76,77,78,79,80,81,82,83,84,85,86,87 width_32 busLabel_32">/32/</text><rect x="392" y="198.5" width="22" height="9" class="net_24,25,26,27,28,29,30,31,32,33,34,35,36,37,38,39,40,41,42,43,44,45,46,47,48,49,50,51,52,53,54,55 width_32 busLabel_32" style="fill: white; stroke: none"/><text x="391" y="206.5" class="net_24,25,26,27,28,29,30,31,32,33,34,35,36,37,38,39,40,41,42,43,44,45,46,47,48,49,50,51,52,53,54,55 width_32 busLabel_32">/32/</text><rect x="392" y="198.5" width="22" height="9" class="net_24,25,26,27,28,29,30,31,32,33,34,35,36,37,38,39,40,41,42,43,44,45,46,47,48,49,50,51,52,53,54,55 width_32 busLabel_32" style="fill: white; stroke: none"/><text x="391" y="206.5" class="net_24,25,26,27,28,29,30,31,32,33,34,35,36,37,38,39,40,41,42,43,44,45,46,47,48,49,50,51,52,53,54,55 width_32 busLabel_32">/32/</text><rect x="392" y="198.5" width="22" height="9" class="net_24,25,26,27,28,29,30,31,32,33,34,35,36,37,38,39,40,41,42,43,44,45,46,47,48,49,50,51,52,53,54,55 width_32 busLabel_32" style="fill: white; stroke: none"/><text x="391" y="206.5" class="net_24,25,26,27,28,29,30,31,32,33,34,35,36,37,38,39,40,41,42,43,44,45,46,47,48,49,50,51,52,53,54,55 width_32 busLabel_32">/32/</text><rect x="392" y="198.5" width="22" height="9" class="net_24,25,26,27,28,29,30,31,32,33,34,35,36,37,38,39,40,41,42,43,44,45,46,47,48,49,50,51,52,53,54,55 width_32 busLabel_32" style="fill: white; stroke: none"/><text x="391" y="206.5" class="net_24,25,26,27,28,29,30,31,32,33,34,35,36,37,38,39,40,41,42,43,44,45,46,47,48,49,50,51,52,53,54,55 width_32 busLabel_32">/32/</text><rect x="392" y="198.5" width="22" height="9" class="net_24,25,26,27,28,29,30,31,32,33,34,35,36,37,38,39,40,41,42,43,44,45,46,47,48,49,50,51,52,53,54,55 width_32 busLabel_32" style="fill: white; stroke: none"/><text x="391" y="206.5" class="net_24,25,26,27,28,29,30,31,32,33,34,35,36,37,38,39,40,41,42,43,44,45,46,47,48,49,50,51,52,53,54,55 width_32 busLabel_32">/32/</text><rect x="392" y="240.5" width="22" height="9" class="net_88,89,90,91,92,93,94,95,96,97,98,99,100,101,102,103,104,105,106,107,108,109,110,111,112,113,114,115,116,117,118,119 width_32 busLabel_32" style="fill: white; stroke: none"/><text x="391" y="248.5" class="net_88,89,90,91,92,93,94,95,96,97,98,99,100,101,102,103,104,105,106,107,108,109,110,111,112,113,114,115,116,117,118,119 width_32 busLabel_32">/32/</text><rect x="392" y="240.5" width="22" height="9" class="net_88,89,90,91,92,93,94,95,96,97,98,99,100,101,102,103,104,105,106,107,108,109,110,111,112,113,114,115,116,117,118,119 width_32 busLabel_32" style="fill: white; stroke: none"/><text x="391" y="248.5" class="net_88,89,90,91,92,93,94,95,96,97,98,99,100,101,102,103,104,105,106,107,108,109,110,111,112,113,114,115,116,117,118,119 width_32 busLabel_32">/32/</text><rect x="392" y="240.5" width="22" height="9" class="net_88,89,90,91,92,93,94,95,96,97,98,99,100,101,102,103,104,105,106,107,108,109,110,111,112,113,114,115,116,117,118,119 width_32 busLabel_32" style="fill: white; stroke: none"/><text x="391" y="248.5" class="net_88,89,90,91,92,93,94,95,96,97,98,99,100,101,102,103,104,105,106,107,108,109,110,111,112,113,114,115,116,117,118,119 width_32 busLabel_32">/32/</text><rect x="392" y="240.5" width="22" height="9" class="net_88,89,90,91,92,93,94,95,96,97,98,99,100,101,102,103,104,105,106,107,108,109,110,111,112,113,114,115,116,117,118,119 width_32 busLabel_32" style="fill: white; stroke: none"/><text x="391" y="248.5" class="net_88,89,90,91,92,93,94,95,96,97,98,99,100,101,102,103,104,105,106,107,108,109,110,111,112,113,114,115,116,117,118,119 width_32 busLabel_32">/32/</text><rect x="457.5" y="801.5" width="16" height="9" class="net_18,19,20,21 width_4 busLabel_4" style="fill: white; stroke: none"/><text x="456.5" y="809.5" class="net_18,19,20,21 width_4 busLabel_4">/4/</text><rect x="741" y="240" width="22" height="9" class="net_152,153,154,155,156,157,158,159,160,161,162,163,164,165,166,167,168,169,170,171,172,173,174,175,176,177,178,179,180,181,182,183 width_32 busLabel_32" style="fill: white; stroke: none"/><text x="740" y="248" class="net_152,153,154,155,156,157,158,159,160,161,162,163,164,165,166,167,168,169,170,171,172,173,174,175,176,177,178,179,180,181,182,183 width_32 busLabel_32">/32/</text><rect x="741" y="260" width="22" height="9" class="net_184,185,186,187,188,189,190,191,192,193,194,195,196,197,198,199,200,201,202,203,204,205,206,207,208,209,210,211,212,213,214,215 width_32 busLabel_32" style="fill: white; stroke: none"/><text x="740" y="268" class="net_184,185,186,187,188,189,190,191,192,193,194,195,196,197,198,199,200,201,202,203,204,205,206,207,208,209,210,211,212,213,214,215 width_32 busLabel_32">/32/</text><rect x="741" y="533.5" width="22" height="9" class="net_216,217,218,219,220,221,222,223,224,225,226,227,228,229,230,231,232,233,234,235,236,237,238,239,240,241,242,243,244,245,246,247 width_32 busLabel_32" style="fill: white; stroke: none"/><text x="740" y="541.5" class="net_216,217,218,219,220,221,222,223,224,225,226,227,228,229,230,231,232,233,234,235,236,237,238,239,240,241,242,243,244,245,246,247 width_32 busLabel_32">/32/</text><rect x="741" y="721.5" width="22" height="9" class="net_120,121,122,123,124,125,126,127,128,129,130,131,132,133,134,135,136,137,138,139,140,141,142,143,144,145,146,147,148,149,150,151 width_32 busLabel_32" style="fill: white; stroke: none"/><text x="740" y="729.5" class="net_120,121,122,123,124,125,126,127,128,129,130,131,132,133,134,135,136,137,138,139,140,141,142,143,144,145,146,147,148,149,150,151 width_32 busLabel_32">/32/</text><rect x="457.5" y="301.5" width="16" height="9" class="net_7,8,9,10 width_4 busLabel_4" style="fill: white; stroke: none"/><text x="456.5" y="309.5" class="net_7,8,9,10 width_4 busLabel_4">/4/</text><rect x="392" y="865.5" width="16" height="9" class="net_248,249,250,251,252,253,11 width_7 busLabel_7" style="fill: white; stroke: none"/><text x="391" y="873.5" class="net_248,249,250,251,252,253,11 width_7 busLabel_7">/7/</text></svg>